<?xml version="1.0" encoding="UTF-8" standalone="no"?>
<svg
   xmlns:dc="http://purl.org/dc/elements/1.1/"
   xmlns:cc="http://creativecommons.org/ns#"
   xmlns:rdf="http://www.w3.org/1999/02/22-rdf-syntax-ns#"
   xmlns:svg="http://www.w3.org/2000/svg"
   xmlns="http://www.w3.org/2000/svg"
   xmlns:xlink="http://www.w3.org/1999/xlink"
   xmlns:sodipodi="http://sodipodi.sourceforge.net/DTD/sodipodi-0.dtd"
   xmlns:inkscape="http://www.inkscape.org/namespaces/inkscape"
   width="210mm"
   height="297mm"
   viewBox="0 0 210 297"
   version="1.1"
   id="svg2828"
   inkscape:version="1.0.1 (3bc2e813f5, 2020-09-07)"
   sodipodi:docname="logo.svg">
  <defs
     id="defs2822">
    <rect
       x="68.32819"
       y="173.57668"
       width="72.276586"
       height="22.690846"
       id="rect928" />
    <rect
       x="69.866536"
       y="171.14096"
       width="70.763904"
       height="25.126314"
       id="rect922" />
    <rect
       x="73.968791"
       y="173.70487"
       width="54.739469"
       height="7.4353377"
       id="rect914" />
    <clipPath
       clipPathUnits="userSpaceOnUse"
       id="clipPath934">
      <use
         x="0"
         y="0"
         xlink:href="#g930"
         id="use936" />
    </clipPath>
  </defs>
  <sodipodi:namedview
     id="base"
     pagecolor="#ffffff"
     bordercolor="#666666"
     borderopacity="1.0"
     inkscape:pageopacity="0.0"
     inkscape:pageshadow="2"
     inkscape:zoom="3.0984751"
     inkscape:cx="454.33685"
     inkscape:cy="526.45878"
     inkscape:document-units="mm"
     inkscape:current-layer="layer1"
     inkscape:document-rotation="0"
     showgrid="false"
     inkscape:window-width="1264"
     inkscape:window-height="1042"
     inkscape:window-x="1280"
     inkscape:window-y="0"
     inkscape:window-maximized="0"
     inkscape:snap-intersection-paths="false"
     inkscape:object-nodes="false" />
  <metadata
     id="metadata2825">
    <rdf:RDF>
      <cc:Work
         rdf:about="">
        <dc:format>image/svg+xml</dc:format>
        <dc:type
           rdf:resource="http://purl.org/dc/dcmitype/StillImage" />
        <dc:title />
      </cc:Work>
    </rdf:RDF>
  </metadata>
  <g
     inkscape:label="Layer 1"
     inkscape:groupmode="layer"
     id="layer1"
     style="display:inline;opacity:0.934641">
    <g
       id="g932"
       clip-path="url(#clipPath934)"
       transform="translate(2.1166667)">
      <g
         inkscape:label="Clip"
         id="g930">
        <text
           xml:space="preserve"
           id="text926"
           style="font-style:normal;font-variant:normal;font-weight:normal;font-stretch:normal;font-size:8.46667px;line-height:1.25;font-family:Shruti;-inkscape-font-specification:Shruti;white-space:pre;shape-inside:url(#rect928);display:inline;opacity:0.934641;fill:#00be80;fill-opacity:1;"
           transform="matrix(1.1348479,0,0,0.97998116,0.19904131,3.4989572)"><tspan
             x="68.328125"
             y="179.77648"><tspan
               style="font-style:normal;font-variant:normal;font-weight:bold;font-stretch:normal;font-size:8.46667px;font-family:Shruti;-inkscape-font-specification:'Shruti Bold';fill:#00be80;fill-opacity:1">LOGOTYPE</tspan></tspan></text>
        <text
           xml:space="preserve"
           style="font-size:2.22486px;line-height:1.25;font-family:sans-serif;display:inline;opacity:0.934641;fill:#808080;stroke-width:0.278108"
           x="74.996384"
           y="194.28999"
           id="text938"
           transform="scale(1.0511167,0.95136914)"><tspan
             sodipodi:role="line"
             id="tspan936"
             x="74.996384"
             y="194.28999"
             style="fill:#808080;stroke-width:0.278108">VECTOR LOGO CONCEPT ILLUSTRATION</tspan></text>
        <path
           style="display:inline;fill:#007b00;fill-opacity:0.980392;stroke:none;stroke-width:0.264583px;stroke-linecap:butt;stroke-linejoin:miter;stroke-opacity:1"
           d="m 91.072627,113.84633 c -2.034508,1.91074 -4.12279,3.10979 -6.108728,5.63931 -1.985938,2.52951 -3.869532,6.38949 -5.494666,13.6221 0.144165,-2.85167 -1.19648,-6.76394 2.303253,-14.67421 4.636642,-3.32485 6.603058,-3.57129 9.300141,-4.5872 z"
           id="path849"
           sodipodi:nodetypes="csccc" />
        <path
           style="display:inline;fill:#2ac0c6;fill-opacity:0.980392;stroke:none;stroke-width:0.264583px;stroke-linecap:butt;stroke-linejoin:miter;stroke-opacity:1"
           d="m 81.772486,118.383 c 0,0 -8.184894,4.01149 -8.906419,20.0463 -1.124736,24.99557 21.688265,25.91683 25.154209,26.53214 27.750804,4.00548 34.079804,-18.67815 33.106184,-32.37441 -11.15821,13.06438 -17.68359,11.71551 -25.15421,13.30739 5.15869,0.60661 7.5214,3.03061 20.77251,-1.62285 -6.08324,11.30504 -15.74636,15.90329 -26.777061,13.30738 -16.953269,-3.9897 -20.222953,-15.37381 -20.447941,-26.2902 -0.08538,-4.1428 0.534725,-8.02358 2.252728,-12.90575"
           id="path856"
           sodipodi:nodetypes="csccccssc" />
        <path
           style="display:inline;fill:#007b00;fill-opacity:0.980392;stroke:none;stroke-width:0.265;stroke-linecap:butt;stroke-linejoin:miter;stroke-miterlimit:4;stroke-dasharray:none;stroke-opacity:1"
           d="m 131.12646,132.58703 c 6.07692,22.82704 -14.02719,36.73954 -31.689252,35.04637 -12.077874,-1.15785 -27.426778,-9.72506 -26.571141,-29.2041 2.633292,14.8371 12.482498,24.89477 26.973199,25.11737 22.390684,0.34395 32.263774,-13.65074 31.287194,-30.95964"
           id="path858"
           sodipodi:nodetypes="cscsc" />
        <path
           style="display:inline;fill:#007b00;fill-opacity:0.980392;stroke:none;stroke-width:0.264583px;stroke-linecap:butt;stroke-linejoin:miter;stroke-opacity:1"
           d="m 105.97225,145.89442 c -9.169444,0.42081 -9.889229,-1.03608 -13.794241,-1.78514 5.734077,3.57118 12.325631,6.49838 18.059711,7.2641 5.40882,0.75664 9.90351,-0.45269 12.71939,-1.50297 1.37393,-1.63932 2.76921,-2.89303 3.78765,-5.59884 -9.69565,3.11677 -14.45156,2.98186 -19.95076,1.62285"
           id="path860"
           sodipodi:nodetypes="cccccc" />
        <path
           style="display:inline;fill:#b72424;fill-opacity:0.980392;fill-rule:nonzero;stroke:none;stroke-width:0.264583px;stroke-linecap:butt;stroke-linejoin:miter;stroke-opacity:1"
           d="m 90.310598,141.26092 c 3.967146,-7.28877 1.110932,-11.98049 25.819422,-23.75386 12.62972,-6.57132 16.0848,-14.88611 16.9221,-24.183098 0.81763,-9.07861 -0.2186,-19.161674 -0.39767,-30.209821 -0.78544,30.142393 1.40591,37.080429 -19.39326,46.130699 -15.908352,6.92214 -23.530223,19.8247 -22.950592,32.01608 z"
           id="path871"
           sodipodi:nodetypes="ccscsc" />
        <path
           style="display:inline;fill:#e42a2a;fill-opacity:0.980392;stroke:none;stroke-width:0.264583px;stroke-linecap:butt;stroke-linejoin:miter;stroke-opacity:1"
           d="m 90.310596,141.26092 c 1.124396,-13.76091 -1.860628,-32.34997 8.376971,-40.16354 7.396403,-5.645103 16.415823,-10.816547 23.065353,-15.72116 4.7525,-3.505386 9.16517,-8.200185 10.90153,-22.262079 -1.07513,9.51784 2.5058,32.603689 -7.91796,39.475029 -3.88925,3.53596 -8.31161,5.67018 -14.22937,7.91795 -17.71998,10.21692 -19.423606,23.21036 -20.196524,30.7538 z"
           id="path873"
           sodipodi:nodetypes="csscccc" />
        <path
           style="display:inline;fill:#e42a2a;fill-opacity:0.980392;stroke:none;stroke-width:0.264583px;stroke-linecap:butt;stroke-linejoin:miter;stroke-opacity:1"
           d="m 132.5397,110.50712 c -1.56806,8.49178 -8.98444,30.8542 -41.540584,32.07346 6.548358,-4.84417 3.729313,-8.36468 22.778474,-14.97526 7.39805,-2.9899 14.24477,-7.28557 18.76211,-17.0982"
           id="path877"
           sodipodi:nodetypes="cccc" />
      </g>
    </g>
    <path
       style="display:inline;fill:#b72424;fill-opacity:0.980392;stroke:none;stroke-width:0.264583px;stroke-linecap:butt;stroke-linejoin:miter;stroke-opacity:1"
       d="m 93.219294,142.4098 c 17.034506,-2.47892 33.379116,-6.73521 41.540586,-32.07346 -2.25183,33.97112 -31.00446,32.49996 -41.540586,32.07346 z"
       id="path890"
       sodipodi:nodetypes="ccc" />
  </g>
</svg>
