<?xml version="1.0" encoding="UTF-8" standalone="no"?>
<svg
   xmlns:dc="http://purl.org/dc/elements/1.1/"
   xmlns:cc="http://creativecommons.org/ns#"
   xmlns:rdf="http://www.w3.org/1999/02/22-rdf-syntax-ns#"
   xmlns:svg="http://www.w3.org/2000/svg"
   xmlns="http://www.w3.org/2000/svg"
   xmlns:xlink="http://www.w3.org/1999/xlink"
   xmlns:sodipodi="http://sodipodi.sourceforge.net/DTD/sodipodi-0.dtd"
   xmlns:inkscape="http://www.inkscape.org/namespaces/inkscape"
   width="210mm"
   height="297mm"
   viewBox="0 0 210 297"
   version="1.1"
   id="svg8"
   inkscape:version="1.0.1 (3bc2e813f5, 2020-09-07)"
   sodipodi:docname="peacock-logo.svg">
  <defs
     id="defs2">
    <linearGradient
       inkscape:collect="always"
       id="linearGradient2810">
      <stop
         style="stop-color:#5800d0;stop-opacity:1;"
         offset="0"
         id="stop2806" />
      <stop
         style="stop-color:#5800d0;stop-opacity:0;"
         offset="1"
         id="stop2808" />
    </linearGradient>
    <inkscape:perspective
       sodipodi:type="inkscape:persp3d"
       inkscape:vp_x="0 : 148.5 : 1"
       inkscape:vp_y="0 : 1000 : 0"
       inkscape:vp_z="210 : 148.5 : 1"
       inkscape:persp3d-origin="105 : 99 : 1"
       id="perspective849" />
    <linearGradient
       inkscape:collect="always"
       xlink:href="#linearGradient2810"
       id="linearGradient2812"
       x1="14.870151"
       y1="149.70282"
       x2="176.35846"
       y2="149.70282"
       gradientUnits="userSpaceOnUse" />
  </defs>
  <sodipodi:namedview
     id="base"
     pagecolor="#ffffff"
     bordercolor="#666666"
     borderopacity="1.0"
     inkscape:pageopacity="0.0"
     inkscape:pageshadow="2"
     inkscape:zoom="0.40750302"
     inkscape:cx="359.45217"
     inkscape:cy="393.50815"
     inkscape:document-units="mm"
     inkscape:current-layer="layer1"
     inkscape:document-rotation="0"
     showgrid="false"
     inkscape:window-width="953"
     inkscape:window-height="1042"
     inkscape:window-x="531"
     inkscape:window-y="0"
     inkscape:window-maximized="0" />
  <metadata
     id="metadata5">
    <rdf:RDF>
      <cc:Work
         rdf:about="">
        <dc:format>image/svg+xml</dc:format>
        <dc:type
           rdf:resource="http://purl.org/dc/dcmitype/StillImage" />
        <dc:title></dc:title>
      </cc:Work>
    </rdf:RDF>
  </metadata>
  <g
     inkscape:label="Layer 1"
     inkscape:groupmode="layer"
     id="layer1"
     style="display:inline;mix-blend-mode:normal">
    <path
       style="fill:url(#linearGradient2812);stroke:#000000;stroke-width:0.264583px;stroke-linecap:butt;stroke-linejoin:miter;stroke-opacity:1;fill-opacity:1"
       d="M 111.50484,38.540265 97.660285,30.682542 C 102.22185,23.074269 96.976983,12.768836 90.176738,10.851143 64.339702,3.5650054 38.741371,32.063433 26.566592,60.242551 14.391813,88.421668 8.6676651,119.68861 25.444059,166.13474 c 16.776394,46.44613 89.398581,83.12035 78.203061,75.20964 -9.418997,-14.09401 -28.338742,-32.67815 -30.68254,-46.77216 0.570686,-14.45055 -5.484709,-26.69239 -13.844562,-38.16609 0,0 38.800692,24.66774 50.513942,34.79849 11.71325,10.13075 9.1477,5.21773 21.70228,20.95393 12.55458,15.7362 48.89812,80.36871 44.5271,77.4547 C 165.83167,259.18017 151.19215,201.93104 139.94232,186.71449 128.69249,171.49795 63.589498,152.47562 50.139763,128.717 36.690028,104.95838 42.412884,88.125624 48.268876,71.842047 54.124868,55.55847 81.57066,43.404571 81.57066,43.404571 Z"
       id="path2802"
       sodipodi:nodetypes="ccazzccczzczzzcc" />
    <path
       style="fill:#58d592;fill-opacity:1;stroke:#000000;stroke-width:0.264583px;stroke-linecap:butt;stroke-linejoin:miter;stroke-opacity:1"
       d="M 97.286108,59.494195 C 43.816525,55.380381 53.33716,118.53545 83.815721,138.07144 c 39.344229,14.98083 57.149269,29.41752 71.467869,61.73926 l -2.24506,-36.2952 31.05672,3.74177 C 164.33345,117.6468 150.75569,63.608009 97.286108,59.494195 Z"
       id="path2804"
       sodipodi:nodetypes="zccccz" />
    <path
       style="fill:none;stroke:#000000;stroke-width:0.264583px;stroke-linecap:butt;stroke-linejoin:miter;stroke-opacity:1"
       d="m 153.03853,163.5155 c 0,0 -19.08232,-15.91215 -30.49545,-20.20558 -12.19251,-4.58662 -38.727359,-5.23848 -38.727359,-5.23848"
       id="path2814"
       inkscape:transform-center-x="5.2384827"
       inkscape:transform-center-y="6.7351921"
       sodipodi:nodetypes="cac" />
    <ellipse
       style="opacity:1;fill:#f0f7f7;fill-opacity:1;stroke:none;stroke-width:0.264583;stroke-opacity:1"
       id="path2820"
       cx="86.354248"
       cy="21.146524"
       rx="2.80633"
       ry="2.6192415" />
  </g>
  <g
     inkscape:groupmode="layer"
     id="layer2"
     inkscape:label="Layer 2" />
</svg>
